<svg class="w-full h-full text-brand-600" xmlns="http://www.w3.org/2000/svg" viewBox="40 0 400 400" fill="currentColor" role="img" aria-label="Símbolo Psi">
         <path d="m217.79 169.05q25.199 0 38.169-8.5231 13.155-8.5231 17.416-20.752 4.4448-12.229 5.7425-40.763 1.2972-31.684 14.082-47.062 12.97-15.564 42.43-15.564v7.0409q-10.561 0.74103-14.452 8.3378-3.705 7.4114-3.705 31.684 0 35.575-7.5966 55.03-7.4111 19.27-30.016 31.313-22.605 12.043-62.071 12.97v58.735q0 21.678 2.4074 28.163 2.5953 6.2997 10.561 10.191 8.1528 3.8911 25.014 3.8911v6.8556h-111.54v-6.8556q16.49-0.18797 24.458-3.5206 8.1526-3.5206 10.747-10.006 2.7772-6.6702 2.7772-28.719v-58.735q-39.836-0.9259-61.885-12.785-22.049-11.858-30.016-30.943-7.7816-19.27-7.7816-55.771 0-23.346-3.5229-30.943-3.5229-7.7821-14.637-8.8938v-7.0408q18.714 0.36974 30.201 5.9292 11.488 5.5585 18.343 19.64 7.0408 14.082 7.9673 37.057 1.2972 28.349 5.3724 40.577 4.2629 12.229 17.602 20.937 13.341 8.5231 38.354 8.5231v-80.784q0-21.678-2.5953-27.978-2.4074-6.485-10.376-10.191-7.9671-3.7055-25.014-3.891v-6.8556h111.54v6.8556q-17.046 0.18798-25.014 3.891-7.9671 3.5208-10.561 10.006-2.4074 6.4851-2.4074 28.163z"/>
      </svg>